<?xml version="1.0" encoding="utf-8"?>
<!-- Generator: Adobe Illustrator 22.0.1, SVG Export Plug-In . SVG Version: 6.00 Build 0)  -->
<svg version="1.1" id="Layer_1" xmlns="http://www.w3.org/2000/svg" xmlns:xlink="http://www.w3.org/1999/xlink" x="0px" y="0px"
	 viewBox="0 0 518.9 155.1" style="enable-background:new 0 0 518.9 155.1;" xml:space="preserve">
<style type="text/css">
	.st0{fill:#16113F;}
	.st1{fill:#3359A5;}
</style>
<g>
	<path class="st0" d="M217.6,35.5L212.7,23L208,35.5H217.6z M230.7,48.8h-7.7l-3.1-7.6h-14.1l-2.9,7.6h-7.5l13.7-33.7h7.5
		L230.7,48.8z"/>
	<path class="st0" d="M231.3,41.8l6.8-1c0.3,1.3,0.9,2.2,1.8,2.9c0.9,0.6,2.1,1,3.7,1c1.7,0,3.1-0.3,3.9-0.9c0.6-0.4,0.9-1,0.9-1.7
		c0-0.5-0.2-0.9-0.5-1.2c-0.3-0.3-1.1-0.6-2.3-0.8c-5.4-1.1-8.9-2.2-10.4-3.1c-2-1.3-3-3.1-3-5.5c0-2.1,0.9-3.9,2.6-5.3
		c1.7-1.4,4.5-2.2,8.1-2.2c3.5,0,6.1,0.5,7.8,1.6c1.7,1.1,2.9,2.7,3.5,4.8l-6.4,1.1c-0.3-1-0.8-1.7-1.6-2.2
		c-0.8-0.5-1.8-0.8-3.3-0.8c-1.8,0-3.1,0.2-3.8,0.7c-0.5,0.3-0.8,0.8-0.8,1.3c0,0.5,0.2,0.9,0.7,1.2c0.6,0.4,2.7,1,6.3,1.8
		c3.6,0.8,6.1,1.7,7.5,2.9c1.4,1.1,2.1,2.7,2.1,4.8c0,2.2-1,4.2-2.9,5.8c-2,1.6-4.8,2.4-8.7,2.4c-3.5,0-6.2-0.7-8.2-2
		C233.2,46,231.9,44.1,231.3,41.8"/>
	<path class="st0" d="M265.6,36.6c0,2.4,0.6,4.3,1.8,5.6c1.2,1.3,2.7,1.9,4.4,1.9c1.8,0,3.2-0.6,4.4-1.9c1.2-1.3,1.8-3.1,1.8-5.6
		c0-2.4-0.6-4.2-1.8-5.5c-1.2-1.3-2.7-1.9-4.4-1.9c-1.8,0-3.2,0.6-4.4,1.9C266.2,32.3,265.6,34.2,265.6,36.6 M258.7,36.2
		c0-2.1,0.6-4.2,1.7-6.2c1.1-2,2.7-3.5,4.7-4.6c2-1.1,4.3-1.6,6.8-1.6c3.9,0,7,1.2,9.5,3.6c2.5,2.4,3.7,5.4,3.7,9.1
		c0,3.7-1.2,6.8-3.7,9.2c-2.5,2.4-5.6,3.6-9.4,3.6c-2.3,0-4.6-0.5-6.7-1.5c-2.1-1-3.7-2.5-4.8-4.4C259.3,41.4,258.7,39,258.7,36.2"
		/>
	<path class="st0" d="M311.8,31.6l-6.7,1.1c-0.2-1.3-0.7-2.2-1.5-2.9c-0.8-0.6-1.8-1-3.1-1c-1.7,0-3,0.6-4,1.7c-1,1.1-1.5,3-1.5,5.6
		c0,2.9,0.5,4.9,1.5,6.1c1,1.2,2.4,1.8,4.1,1.8c1.3,0,2.3-0.3,3.1-1c0.8-0.7,1.4-1.9,1.7-3.6l6.6,1.1c-0.7,2.9-2,5.1-4,6.6
		c-2,1.5-4.6,2.2-7.9,2.2c-3.7,0-6.7-1.1-8.9-3.4c-2.2-2.3-3.3-5.4-3.3-9.3c0-4,1.1-7.2,3.3-9.4c2.2-2.2,5.2-3.4,9-3.4
		c3.1,0,5.6,0.6,7.4,1.9C309.7,27,311,29,311.8,31.6"/>
	<path class="st0" d="M316.2,24.4h6.7v24.4h-6.7V24.4z M316.2,15.1h6.7v6h-6.7V15.1z"/>
	<path class="st0" d="M343.2,37.1c-0.9,0.3-2.2,0.6-4.1,1c-1.9,0.4-3.1,0.8-3.7,1.1c-0.9,0.6-1.3,1.4-1.3,2.3c0,0.9,0.3,1.7,1.1,2.3
		c0.7,0.7,1.6,1,2.7,1c1.2,0,2.4-0.4,3.5-1.1c0.8-0.6,1.4-1.3,1.6-2.1c0.2-0.5,0.3-1.6,0.3-3.1V37.1z M334.2,31.8l-6.1-1.1
		c0.7-2.4,1.9-4.1,3.5-5.2c1.7-1.1,4.2-1.7,7.5-1.7c3,0,5.3,0.3,6.7,1c1.5,0.7,2.5,1.5,3.1,2.6c0.6,1,0.9,3,0.9,5.8l-0.1,7.5
		c0,2.1,0.1,3.7,0.3,4.7c0.2,1,0.6,2.1,1.2,3.3h-6.7c-0.2-0.4-0.4-1.1-0.6-1.9c-0.1-0.4-0.2-0.6-0.2-0.8c-1.1,1.1-2.4,1.9-3.7,2.4
		c-1.3,0.5-2.7,0.8-4.2,0.8c-2.6,0-4.7-0.7-6.2-2c-1.5-1.4-2.3-3.1-2.3-5.2c0-1.4,0.3-2.6,1-3.7c0.7-1.1,1.7-1.9,2.9-2.5
		c1.2-0.6,3-1.1,5.4-1.5c3.2-0.6,5.3-1.1,6.6-1.6v-0.6c0-1.2-0.3-2.1-1-2.6c-0.6-0.5-1.8-0.8-3.6-0.8c-1.2,0-2.1,0.2-2.8,0.7
		C335.1,29.9,334.6,30.7,334.2,31.8"/>
	<path class="st0" d="M378,31.6l-6.7,1.1c-0.2-1.3-0.7-2.2-1.5-2.9c-0.8-0.6-1.8-1-3.1-1c-1.7,0-3,0.6-4,1.7c-1,1.1-1.5,3-1.5,5.6
		c0,2.9,0.5,4.9,1.5,6.1c1,1.2,2.4,1.8,4.1,1.8c1.3,0,2.3-0.3,3.1-1c0.8-0.7,1.4-1.9,1.7-3.6l6.6,1.1c-0.7,2.9-2,5.1-4,6.6
		c-2,1.5-4.6,2.2-7.9,2.2c-3.7,0-6.7-1.1-8.9-3.4c-2.2-2.3-3.3-5.4-3.3-9.3c0-4,1.1-7.2,3.3-9.4c2.2-2.2,5.2-3.4,9-3.4
		c3.1,0,5.6,0.6,7.4,1.9C375.9,27,377.2,29,378,31.6"/>
	<path class="st0" d="M382.4,24.4h6.7v24.4h-6.7V24.4z M382.4,15.1h6.7v6h-6.7V15.1z"/>
	<path class="st0" d="M403.5,21.4l3.3-6.9h7.6l-6.6,6.9H403.5z M400.7,36.6c0,2.4,0.6,4.3,1.8,5.6c1.2,1.3,2.7,1.9,4.4,1.9
		c1.8,0,3.2-0.6,4.4-1.9c1.2-1.3,1.8-3.1,1.8-5.6c0-2.4-0.6-4.2-1.8-5.5c-1.2-1.3-2.7-1.9-4.4-1.9c-1.8,0-3.2,0.6-4.4,1.9
		C401.3,32.3,400.7,34.2,400.7,36.6 M393.7,36.2c0-2.1,0.6-4.2,1.7-6.2c1.1-2,2.7-3.5,4.7-4.6c2-1.1,4.3-1.6,6.8-1.6
		c3.9,0,7,1.2,9.5,3.6c2.5,2.4,3.7,5.4,3.7,9.1c0,3.7-1.3,6.8-3.7,9.2c-2.5,2.4-5.6,3.6-9.4,3.6c-2.3,0-4.6-0.5-6.7-1.5
		c-2.1-1-3.7-2.5-4.8-4.4C394.3,41.4,393.7,39,393.7,36.2"/>
	<path class="st0" d="M447.8,48.8h-6.7V36.3c0-2.6-0.1-4.3-0.4-5.1c-0.3-0.8-0.8-1.4-1.4-1.8c-0.6-0.4-1.4-0.6-2.3-0.6
		c-1.2,0-2.2,0.3-3.1,0.9c-0.9,0.6-1.6,1.4-1.9,2.4c-0.3,1-0.5,2.9-0.5,5.6v11h-6.7V24.4h6.3V28c2.2-2.8,5-4.1,8.4-4.1
		c1.5,0,2.9,0.3,4.1,0.8c1.2,0.5,2.2,1.2,2.8,2c0.6,0.8,1.1,1.7,1.3,2.7c0.2,1,0.4,2.5,0.4,4.3V48.8z"/>
	<path class="st0" d="M202.5,80.7v9h6.6c2.6,0,4.2-0.1,4.9-0.2c1.1-0.2,1.9-0.6,2.6-1.3c0.7-0.7,1-1.7,1-2.9c0-1-0.3-1.9-0.8-2.6
		c-0.5-0.7-1.3-1.2-2.2-1.5c-1-0.3-3.1-0.5-6.3-0.5H202.5z M202.5,67.4v7.8h4.7c2.8,0,4.5,0,5.2-0.1c1.2-0.1,2.2-0.5,2.9-1.2
		c0.7-0.7,1-1.5,1-2.6c0-1-0.3-1.9-0.9-2.5c-0.6-0.6-1.5-1-2.7-1.2c-0.7-0.1-2.7-0.1-6.1-0.1H202.5z M195.4,61.8h14.1
		c2.8,0,4.9,0.1,6.2,0.3c1.4,0.2,2.6,0.7,3.7,1.4c1.1,0.7,2,1.6,2.7,2.8c0.7,1.2,1.1,2.5,1.1,3.9c0,1.6-0.4,3-1.3,4.3
		c-0.9,1.3-2.1,2.3-3.6,3c2.1,0.6,3.8,1.6,4.9,3.1c1.2,1.4,1.7,3.1,1.7,5.1c0,1.5-0.4,3-1.1,4.5c-0.7,1.4-1.8,2.6-3.1,3.5
		c-1.3,0.9-2.9,1.4-4.8,1.6c-1.2,0.1-4,0.2-8.6,0.2h-12V61.8z"/>
	<path class="st0" d="M244.1,83.7c-0.9,0.3-2.2,0.6-4.1,1c-1.9,0.4-3.1,0.8-3.7,1.1c-0.9,0.6-1.3,1.4-1.3,2.3c0,0.9,0.4,1.7,1.1,2.3
		c0.7,0.7,1.6,1,2.7,1c1.2,0,2.4-0.4,3.5-1.1c0.8-0.6,1.3-1.3,1.6-2.1c0.2-0.5,0.3-1.6,0.3-3.1V83.7z M235.1,78.5l-6.1-1.1
		c0.7-2.4,1.9-4.1,3.6-5.2c1.7-1.1,4.2-1.7,7.5-1.7c3,0,5.3,0.3,6.7,1c1.5,0.7,2.5,1.5,3.1,2.6c0.6,1,0.9,3,0.9,5.8l-0.1,7.5
		c0,2.1,0.1,3.7,0.3,4.7c0.2,1,0.6,2.1,1.2,3.3h-6.7c-0.2-0.4-0.4-1.1-0.7-1.9c-0.1-0.4-0.2-0.6-0.2-0.8c-1.2,1.1-2.4,1.9-3.7,2.4
		c-1.3,0.5-2.7,0.8-4.2,0.8c-2.6,0-4.7-0.7-6.2-2c-1.5-1.4-2.3-3.1-2.3-5.2c0-1.4,0.3-2.6,1-3.7c0.7-1.1,1.7-1.9,2.9-2.5
		c1.2-0.6,3-1.1,5.4-1.5c3.2-0.6,5.3-1.1,6.6-1.6v-0.6c0-1.2-0.3-2.1-1-2.6c-0.6-0.5-1.8-0.8-3.6-0.8c-1.2,0-2.1,0.2-2.8,0.7
		C236.1,76.5,235.5,77.3,235.1,78.5"/>
	<path class="st0" d="M279.9,95.4h-6.8V83c0-2.6-0.1-4.3-0.4-5.1c-0.3-0.8-0.8-1.4-1.4-1.8c-0.6-0.4-1.4-0.6-2.3-0.6
		c-1.2,0-2.2,0.3-3.1,0.9c-0.9,0.6-1.6,1.4-1.9,2.4c-0.3,1-0.5,2.9-0.5,5.6v11h-6.8V71h6.3v3.6c2.2-2.8,5-4.1,8.4-4.1
		c1.5,0,2.8,0.3,4.1,0.8c1.2,0.5,2.2,1.2,2.8,2c0.6,0.8,1.1,1.7,1.3,2.7c0.2,1,0.4,2.5,0.4,4.3V95.4z"/>
	<path class="st0" d="M308.2,78.2l-6.7,1.1c-0.2-1.3-0.7-2.2-1.5-2.9c-0.8-0.6-1.8-1-3.1-1c-1.7,0-3,0.6-4,1.7c-1,1.1-1.5,3-1.5,5.6
		c0,2.9,0.5,4.9,1.5,6.1c1,1.2,2.4,1.8,4.1,1.8c1.3,0,2.3-0.3,3.1-1c0.8-0.7,1.4-1.9,1.7-3.6l6.6,1.1c-0.7,2.9-2,5.1-4,6.6
		c-2,1.5-4.6,2.2-7.9,2.2c-3.7,0-6.7-1.1-8.9-3.4c-2.2-2.3-3.3-5.4-3.3-9.3c0-4,1.1-7.2,3.3-9.4c2.2-2.2,5.2-3.4,9-3.4
		c3.1,0,5.6,0.6,7.4,1.9C306.1,73.7,307.4,75.6,308.2,78.2"/>
	<path class="st0" d="M326.7,83.7c-0.9,0.3-2.2,0.6-4.1,1c-1.9,0.4-3.1,0.8-3.7,1.1c-0.9,0.6-1.3,1.4-1.3,2.3c0,0.9,0.4,1.7,1.1,2.3
		c0.7,0.7,1.6,1,2.7,1c1.2,0,2.4-0.4,3.5-1.1c0.8-0.6,1.4-1.3,1.6-2.1c0.2-0.5,0.3-1.6,0.3-3.1V83.7z M317.7,78.5l-6.1-1.1
		c0.7-2.4,1.9-4.1,3.6-5.2c1.7-1.1,4.2-1.7,7.5-1.7c3,0,5.2,0.3,6.7,1c1.5,0.7,2.5,1.5,3.1,2.6c0.6,1,0.9,3,0.9,5.8l-0.1,7.5
		c0,2.1,0.1,3.7,0.3,4.7c0.2,1,0.6,2.1,1.2,3.3h-6.7c-0.2-0.4-0.4-1.1-0.7-1.9c-0.1-0.4-0.2-0.6-0.2-0.8c-1.2,1.1-2.4,1.9-3.7,2.4
		c-1.3,0.5-2.7,0.8-4.2,0.8c-2.6,0-4.7-0.7-6.2-2c-1.5-1.4-2.3-3.1-2.3-5.2c0-1.4,0.3-2.6,1-3.7c0.7-1.1,1.6-1.9,2.9-2.5
		c1.2-0.6,3-1.1,5.4-1.5c3.2-0.6,5.3-1.1,6.6-1.6v-0.6c0-1.2-0.3-2.1-1-2.6c-0.6-0.5-1.8-0.8-3.6-0.8c-1.2,0-2.1,0.2-2.8,0.7
		C318.6,76.5,318.1,77.3,317.7,78.5"/>
	<path class="st0" d="M345.7,95.4h-6.8V71h6.3v3.5c1.1-1.6,2-2.7,2.9-3.2c0.9-0.5,1.8-0.8,2.9-0.8c1.5,0,3,0.4,4.4,1.2l-2.1,5.6
		c-1.1-0.7-2.2-1.1-3.2-1.1c-0.9,0-1.7,0.2-2.4,0.7c-0.7,0.5-1.2,1.4-1.5,2.7c-0.4,1.3-0.6,4-0.6,8.2V95.4z"/>
	<path class="st0" d="M357.6,71h6.7v24.4h-6.7V71z M357.6,61.8h6.7v6h-6.7V61.8z"/>
	<path class="st0" d="M384.6,83.7c-0.9,0.3-2.2,0.6-4.1,1c-1.9,0.4-3.1,0.8-3.7,1.1c-0.9,0.6-1.3,1.4-1.3,2.3c0,0.9,0.3,1.7,1.1,2.3
		c0.7,0.7,1.6,1,2.7,1c1.2,0,2.4-0.4,3.5-1.1c0.8-0.6,1.4-1.3,1.6-2.1c0.2-0.5,0.3-1.6,0.3-3.1V83.7z M375.6,78.5l-6.1-1.1
		c0.7-2.4,1.9-4.1,3.6-5.2c1.7-1.1,4.2-1.7,7.5-1.7c3,0,5.3,0.3,6.7,1c1.5,0.7,2.5,1.5,3.1,2.6c0.6,1,0.9,3,0.9,5.8l-0.1,7.5
		c0,2.1,0.1,3.7,0.3,4.7c0.2,1,0.6,2.1,1.2,3.3h-6.7c-0.2-0.4-0.4-1.1-0.7-1.9c-0.1-0.4-0.2-0.6-0.3-0.8c-1.1,1.1-2.4,1.9-3.7,2.4
		c-1.3,0.5-2.7,0.8-4.2,0.8c-2.6,0-4.7-0.7-6.2-2c-1.5-1.4-2.3-3.1-2.3-5.2c0-1.4,0.3-2.6,1-3.7c0.7-1.1,1.7-1.9,2.9-2.5
		c1.2-0.6,3-1.1,5.4-1.5c3.2-0.6,5.4-1.1,6.6-1.6v-0.6c0-1.2-0.3-2.1-1-2.6c-0.6-0.5-1.8-0.8-3.6-0.8c-1.2,0-2.1,0.2-2.8,0.7
		C376.6,76.5,376,77.3,375.6,78.5"/>
	<path class="st0" d="M219.1,126.8l6.9,2.1c-1.1,3.7-2.8,6.4-5.3,8.2c-2.4,1.8-5.6,2.7-9.3,2.7c-4.7,0-8.5-1.5-11.5-4.6
		c-3-3.1-4.5-7.2-4.5-12.5c0-5.6,1.5-9.9,4.5-13.1c3-3.1,7-4.7,11.9-4.7c4.3,0,7.8,1.2,10.5,3.7c1.6,1.4,2.8,3.5,3.6,6.2l-7,1.6
		c-0.4-1.7-1.3-3.1-2.6-4.1c-1.3-1-2.9-1.5-4.8-1.5c-2.6,0-4.7,0.9-6.4,2.7c-1.6,1.8-2.4,4.7-2.4,8.7c0,4.3,0.8,7.3,2.4,9.1
		c1.6,1.8,3.7,2.7,6.2,2.7c1.9,0,3.5-0.6,4.9-1.7C217.6,131.1,218.5,129.3,219.1,126.8"/>
	<path class="st0" d="M236.7,127c0,2.4,0.6,4.3,1.8,5.6c1.2,1.3,2.7,1.9,4.4,1.9c1.8,0,3.2-0.6,4.4-1.9c1.2-1.3,1.8-3.1,1.8-5.6
		c0-2.4-0.6-4.2-1.8-5.5c-1.2-1.3-2.7-1.9-4.4-1.9c-1.8,0-3.2,0.6-4.4,1.9C237.3,122.8,236.7,124.6,236.7,127 M229.8,126.7
		c0-2.1,0.6-4.2,1.7-6.2c1.1-2,2.7-3.5,4.7-4.6c2-1.1,4.3-1.6,6.8-1.6c3.9,0,7,1.2,9.5,3.6c2.5,2.4,3.7,5.4,3.7,9.1
		c0,3.7-1.2,6.8-3.7,9.2c-2.5,2.4-5.6,3.6-9.4,3.6c-2.3,0-4.6-0.5-6.7-1.5c-2.1-1-3.7-2.5-4.8-4.4
		C230.3,131.9,229.8,129.5,229.8,126.7"/>
	<path class="st0" d="M258.3,132.3l6.8-1c0.3,1.3,0.9,2.2,1.8,2.9c0.9,0.6,2.1,1,3.7,1c1.7,0,3.1-0.3,3.9-0.9c0.6-0.4,0.9-1,0.9-1.7
		c0-0.5-0.2-0.9-0.5-1.2c-0.3-0.3-1.1-0.6-2.3-0.8c-5.4-1.1-8.9-2.2-10.3-3.1c-2-1.3-3-3.1-3-5.5c0-2.1,0.9-3.9,2.6-5.3
		c1.7-1.4,4.4-2.2,8.1-2.2c3.5,0,6.1,0.5,7.8,1.6c1.7,1.1,2.9,2.7,3.5,4.8l-6.4,1.1c-0.3-1-0.8-1.7-1.5-2.2
		c-0.8-0.5-1.9-0.8-3.3-0.8c-1.8,0-3,0.2-3.8,0.7c-0.5,0.3-0.8,0.8-0.8,1.3c0,0.5,0.2,0.9,0.7,1.2c0.6,0.4,2.7,1,6.3,1.8
		c3.6,0.8,6.1,1.7,7.5,2.9c1.4,1.1,2.1,2.7,2.1,4.8c0,2.2-1,4.2-2.9,5.8c-2,1.6-4.9,2.4-8.7,2.4c-3.5,0-6.2-0.7-8.3-2
		C260.2,136.4,258.9,134.6,258.3,132.3"/>
	<path class="st0" d="M299,114.8v5.1h-4.6v9.8c0,2,0,3.2,0.1,3.5c0.1,0.3,0.3,0.6,0.6,0.8c0.3,0.2,0.7,0.3,1.1,0.3
		c0.6,0,1.5-0.2,2.7-0.6l0.6,5c-1.6,0.6-3.3,1-5.3,1c-1.2,0-2.3-0.2-3.3-0.6c-1-0.4-1.7-0.9-2.2-1.5c-0.4-0.6-0.8-1.5-0.9-2.5
		c-0.1-0.8-0.2-2.3-0.2-4.6V120h-3.1v-5.1h3.1V110l6.8-3.8v8.6H299z"/>
	<path class="st0" d="M317,127.5c-0.9,0.3-2.2,0.6-4.1,1c-1.9,0.4-3.1,0.8-3.7,1.1c-0.9,0.6-1.3,1.4-1.3,2.3c0,0.9,0.4,1.7,1.1,2.3
		c0.7,0.7,1.6,1,2.7,1c1.2,0,2.4-0.4,3.5-1.1c0.8-0.6,1.4-1.3,1.6-2.1c0.2-0.5,0.3-1.6,0.3-3.1V127.5z M308,122.3l-6.1-1.1
		c0.7-2.4,1.9-4.1,3.6-5.2c1.7-1.1,4.2-1.7,7.5-1.7c3,0,5.2,0.3,6.7,1c1.5,0.7,2.5,1.5,3.1,2.6c0.6,1,0.9,3,0.9,5.8l-0.1,7.5
		c0,2.1,0.1,3.7,0.3,4.7c0.2,1,0.6,2.1,1.2,3.3h-6.7c-0.2-0.4-0.4-1.1-0.6-1.9c-0.1-0.4-0.2-0.6-0.2-0.8c-1.2,1.1-2.4,1.9-3.7,2.4
		c-1.3,0.5-2.7,0.8-4.2,0.8c-2.6,0-4.7-0.7-6.2-2c-1.5-1.4-2.3-3.1-2.3-5.2c0-1.4,0.3-2.6,1-3.7c0.7-1.1,1.7-1.9,2.9-2.5
		c1.2-0.6,3-1.1,5.4-1.5c3.2-0.6,5.3-1.1,6.6-1.6v-0.6c0-1.2-0.3-2.1-1-2.6c-0.6-0.5-1.9-0.8-3.6-0.8c-1.2,0-2.1,0.2-2.8,0.7
		C308.9,120.3,308.4,121.1,308,122.3"/>
	<path class="st0" d="M336,139.2h-6.7v-24.4h6.3v3.5c1.1-1.6,2-2.7,2.9-3.2c0.9-0.5,1.8-0.8,2.9-0.8c1.5,0,3,0.4,4.4,1.2l-2.1,5.6
		c-1.1-0.7-2.2-1.1-3.2-1.1c-1,0-1.7,0.2-2.4,0.7c-0.7,0.5-1.2,1.4-1.5,2.7c-0.4,1.3-0.6,4-0.6,8.2V139.2z"/>
	<path class="st0" d="M354.4,139.2h-6.8v-24.4h6.3v3.5c1.1-1.6,2-2.7,2.9-3.2c0.9-0.5,1.8-0.8,2.9-0.8c1.5,0,3,0.4,4.4,1.2l-2.1,5.6
		c-1.1-0.7-2.2-1.1-3.2-1.1c-0.9,0-1.7,0.2-2.4,0.7c-0.7,0.5-1.2,1.4-1.5,2.7c-0.4,1.3-0.6,4-0.6,8.2V139.2z"/>
	<path class="st0" d="M366.3,114.8h6.7v24.4h-6.7V114.8z M366.3,105.6h6.7v6h-6.7V105.6z"/>
	<path class="st0" d="M401.5,122l-6.7,1.1c-0.2-1.3-0.7-2.2-1.5-2.9c-0.8-0.6-1.8-1-3.1-1c-1.7,0-3,0.6-4,1.7c-1,1.1-1.5,3-1.5,5.6
		c0,2.9,0.5,4.9,1.5,6.1c1,1.2,2.4,1.8,4.1,1.8c1.3,0,2.3-0.3,3.1-1c0.8-0.7,1.4-1.9,1.7-3.6l6.6,1.1c-0.7,2.9-2,5.1-4,6.6
		c-2,1.5-4.6,2.2-7.9,2.2c-3.7,0-6.7-1.1-8.9-3.4c-2.2-2.3-3.3-5.4-3.3-9.3c0-4,1.1-7.2,3.3-9.4c2.2-2.2,5.2-3.4,9-3.4
		c3.1,0,5.6,0.6,7.4,1.9C399.4,117.5,400.7,119.4,401.5,122"/>
	<path class="st0" d="M421,124.9c0-1.9-0.6-3.3-1.5-4.3c-1-1-2.1-1.5-3.5-1.5c-1.5,0-2.7,0.5-3.7,1.5c-1,1-1.4,2.4-1.4,4.2H421z
		 M420.7,131.5l6.7,1.1c-0.9,2.4-2.2,4.2-4.1,5.4c-1.9,1.2-4.2,1.8-7,1.8c-4.4,0-7.7-1.4-9.8-4.2c-1.7-2.2-2.5-5-2.5-8.4
		c0-4,1.1-7.2,3.3-9.5c2.2-2.3,5-3.4,8.4-3.4c3.8,0,6.8,1.2,9,3.6c2.2,2.4,3.2,6.1,3.1,11h-16.9c0.1,1.9,0.6,3.4,1.6,4.5
		c1,1.1,2.3,1.6,3.9,1.6c1.1,0,1.9-0.3,2.7-0.8C419.7,133.6,420.3,132.7,420.7,131.5"/>
	<path class="st0" d="M455.7,139.2H449v-12.4c0-2.6-0.1-4.3-0.4-5.1c-0.3-0.8-0.8-1.4-1.4-1.8c-0.6-0.4-1.4-0.6-2.3-0.6
		c-1.2,0-2.2,0.3-3.1,0.9c-0.9,0.6-1.6,1.4-1.9,2.4c-0.3,1-0.5,2.9-0.5,5.6v11h-6.7v-24.4h6.3v3.6c2.2-2.8,5-4.1,8.4-4.1
		c1.5,0,2.9,0.3,4.1,0.8c1.2,0.5,2.2,1.2,2.8,2c0.6,0.8,1.1,1.7,1.3,2.7c0.2,1,0.4,2.5,0.4,4.3V139.2z"/>
	<path class="st0" d="M459.4,132.3l6.8-1c0.3,1.3,0.9,2.2,1.8,2.9c0.9,0.6,2.1,1,3.7,1c1.7,0,3.1-0.3,3.9-0.9c0.6-0.4,0.9-1,0.9-1.7
		c0-0.5-0.2-0.9-0.5-1.2c-0.3-0.3-1.1-0.6-2.3-0.8c-5.4-1.1-8.9-2.2-10.4-3.1c-2-1.3-3-3.1-3-5.5c0-2.1,0.9-3.9,2.6-5.3
		c1.7-1.4,4.5-2.2,8.1-2.2c3.5,0,6.1,0.5,7.8,1.6c1.7,1.1,2.9,2.7,3.5,4.8l-6.4,1.1c-0.3-1-0.8-1.7-1.5-2.2
		c-0.8-0.5-1.8-0.8-3.3-0.8c-1.8,0-3,0.2-3.8,0.7c-0.5,0.3-0.8,0.8-0.8,1.3c0,0.5,0.2,0.9,0.7,1.2c0.6,0.4,2.7,1,6.3,1.8
		c3.6,0.8,6.1,1.7,7.5,2.9c1.4,1.1,2.1,2.7,2.1,4.8c0,2.2-1,4.2-2.9,5.8c-2,1.6-4.8,2.4-8.7,2.4c-3.5,0-6.2-0.7-8.2-2
		C461.4,136.4,460.1,134.6,459.4,132.3"/>
	<path class="st0" d="M503.6,124.9c-0.1-1.9-0.6-3.3-1.5-4.3c-1-1-2.1-1.5-3.5-1.5c-1.5,0-2.7,0.5-3.6,1.5c-1,1-1.4,2.4-1.4,4.2
		H503.6z M503.2,131.5l6.7,1.1c-0.9,2.4-2.2,4.2-4.1,5.4c-1.9,1.2-4.2,1.8-7,1.8c-4.4,0-7.7-1.4-9.9-4.2c-1.7-2.2-2.5-5-2.5-8.4
		c0-4,1.1-7.2,3.3-9.5c2.2-2.3,5-3.4,8.4-3.4c3.8,0,6.8,1.2,9,3.6c2.2,2.4,3.2,6.1,3.1,11h-16.9c0.1,1.9,0.6,3.4,1.6,4.5
		c1,1.1,2.3,1.6,3.9,1.6c1.1,0,1.9-0.3,2.7-0.8C502.3,133.6,502.8,132.7,503.2,131.5"/>
	<polygon class="st1" points="136.9,139.7 121.6,139.7 168.8,110.3 168.8,120.3 	"/>
	<polygon class="st1" points="152.3,139.7 168.8,139.7 168.8,129.8 	"/>
	<polygon class="st1" points="88.8,139.7 106.5,139.7 168.8,100.4 168.8,90.6 	"/>
	<path class="st0" d="M114.3,82.2l-36.6,22.8L71,94.9l36.4-22.6c0,0,4.5-3,8.2,1.3l0.9,1C119.1,79.6,114.3,82.2,114.3,82.2
		 M57.4,74.4l36.4-22.6c0,0,4.5-3,8.2,1.3l0.9,1c2.7,5-2.1,7.6-2.1,7.6L64.1,84.5L57.4,74.4z M16.1,114.4l0-2.5V30.3l37.8,60.4
		l0.1,0.1L16.1,114.4z M168.8,45.2c-0.1-3.6-0.8-7.1-2-10.3l-0.2,0.1l-9.8,6.1c0.3,1.3,0.4,2.6,0.4,4c0,10.6-8.7,19.3-19.5,19.3
		c-10.8,0-19.5-8.6-19.5-19.3c0-10.6,8.7-19.3,19.5-19.3c5,0,9.5,1.8,12.9,4.9l9.6-6l-0.1-0.2c-5.4-5.6-13-9.3-21.5-9.6l-13.7,0H8.1
		v125h7.2v-7.8l0-3.1l44.5-27.7l0,0.1L81,135.3l87.8-54.2V66.5L168.8,45.2z"/>
</g>
</svg>
